<svg width="30" height="16" viewBox="0 0 30 16" xmlns="http://www.w3.org/2000/svg"><title>binoculars --small</title><g fill="none" fill-rule="evenodd"><path fill="#D8D8D8" d="M9 4h12l-2 4h-8zm0 3.322a4.992 4.992 0 0 0-4-2 4.992 4.992 0 0 0-4 2H0l2-4C3.313 3.107 4.313 3 5 3c.687 0 1.687.107 3 .322l2 4H9zm20 0a4.992 4.992 0 0 0-4-2 4.992 4.992 0 0 0-4 2h-1l2-4C23.313 3.107 24.313 3 25 3c.687 0 1.687.107 3 .322l2 4h-1zM13.416 13H11a4.983 4.983 0 0 0 .416-2c0-.711-.148-1.388-.416-2h8.832a4.983 4.983 0 0 0-.416 2c0 .711.148 1.388.416 2h-2.416a2 2 0 1 0-4 0z"/><circle stroke="#D8D8D8" cx="5" cy="11" r="4.5"/><circle stroke="#D8D8D8" cx="25" cy="11" r="4.5"/><path d="M7.523 2.735c-1.197-.19-2.117-.284-2.762-.284-.644 0-1.565.095-2.761.284L2.761.45a4.75 4.75 0 0 1 2-.451c.679 0 1.345.15 2 .451l.762 2.284zm20 0c-1.197-.19-2.117-.284-2.762-.284-.644 0-1.565.095-2.761.284L22.761.45a4.75 4.75 0 0 1 2-.451c.679 0 1.345.15 2 .451l.762 2.284z" fill="#D8D8D8"/></g></svg>