<?xml version="1.0" encoding="UTF-8"?>
<svg width="30px" height="16px" viewBox="0 0 30 16" version="1.1" xmlns="http://www.w3.org/2000/svg" xmlns:xlink="http://www.w3.org/1999/xlink">
    <!-- Generator: Sketch 48.2 (47327) - http://www.bohemiancoding.com/sketch -->
    <title>binoculars --small</title>
    <desc>Created with Sketch.</desc>
    <defs></defs>
    <g id="illustrations/binoculars" stroke="none" stroke-width="1" fill="none" fill-rule="evenodd">
        <g id="binoculars---small">
            <polygon id="Rectangle-5-Copy" fill="#D8D8D8" points="9 4 21 4 19 8 11 8"></polygon>
            <path d="M9.00036619,7.32228308 C8.08815986,6.10783638 6.63581783,5.32228308 5,5.32228308 C3.36418217,5.32228308 1.91184014,6.10783638 0.999633813,7.32228308 L0,7.32228308 L2,3.32228308 C3.31322771,3.10742769 4.31322771,3 5,3 C5.68677229,3 6.68677229,3.10742769 8,3.32228308 L10,7.32228308 L9.00036619,7.32228308 Z" id="Combined-Shape-Copy-5" fill="#D8D8D8"></path>
            <path d="M29.0003662,7.32228308 C28.0881599,6.10783638 26.6358178,5.32228308 25,5.32228308 C23.3641822,5.32228308 21.9118401,6.10783638 20.9996338,7.32228308 L20,7.32228308 L22,3.32228308 C23.3132277,3.10742769 24.3132277,3 25,3 C25.6867723,3 26.6867723,3.10742769 28,3.32228308 L30,7.32228308 L29.0003662,7.32228308 Z" id="Combined-Shape-Copy-7" fill="#D8D8D8"></path>
            <path d="M13.4160437,13 L11,13 C11.2675962,12.3875377 11.4160437,11.7111047 11.4160437,11 C11.4160437,10.2888953 11.2675962,9.61246235 11,9 L19.8320874,9 C19.5644912,9.61246235 19.4160437,10.2888953 19.4160437,11 C19.4160437,11.7111047 19.5644912,12.3875377 19.8320874,13 L17.4160437,13 C17.4160437,11.8954305 16.5206132,11 15.4160437,11 C14.3114742,11 13.4160437,11.8954305 13.4160437,13 Z" id="Combined-Shape-Copy-4" fill="#D8D8D8"></path>
            <circle id="Oval-4-Copy-5" stroke="#D8D8D8" cx="5" cy="11" r="4.5"></circle>
            <circle id="Oval-4-Copy-6" stroke="#D8D8D8" cx="25" cy="11" r="4.5"></circle>
            <path d="M7.52257676,2.73487875 C6.32625808,2.54563532 5.40582862,2.45101361 4.76128838,2.45101361 C4.11674813,2.45101361 3.19631867,2.54563532 2,2.73487875 L2.76128838,0.451013612 C3.41622695,0.150337871 4.08289361,0 4.76128838,0 C5.43968314,0 6.10634981,0.150337871 6.76128838,0.451013612 L7.52257676,2.73487875 Z" id="Combined-Shape-Copy-6" fill="#D8D8D8"></path>
            <path d="M27.5225768,2.73487875 C26.3262581,2.54563532 25.4058286,2.45101361 24.7612884,2.45101361 C24.1167481,2.45101361 23.1963187,2.54563532 22,2.73487875 L22.7612884,0.451013612 C23.4162269,0.150337871 24.0828936,0 24.7612884,0 C25.4396831,0 26.1063498,0.150337871 26.7612884,0.451013612 L27.5225768,2.73487875 Z" id="Combined-Shape-Copy-8" fill="#D8D8D8"></path>
        </g>
    </g>
</svg>